<svg xmlns="http://www.w3.org/2000/svg" xmlns:xlink="http://www.w3.org/1999/xlink" width="1152" zoomAndPan="magnify" viewBox="0 0 864 863.999991" height="1152" preserveAspectRatio="xMidYMid meet" version="1.0"><path fill="#000000" d="M 122.914062 855.304688 L 238.230469 821.46875 C 247.578125 818.671875 256.4375 814.765625 264.808594 809.75 C 273.175781 804.730469 280.796875 798.761719 287.667969 791.832031 L 819.550781 259.953125 C 860.722656 218.789062 864.742188 155.835938 828.519531 119.613281 L 747.03125 38.125 C 710.808594 1.867188 647.855469 5.914062 606.691406 47.09375 L 74.8125 578.96875 C 67.886719 585.835938 61.914062 593.453125 56.898438 601.820312 C 51.882812 610.1875 47.972656 619.042969 45.175781 628.386719 L 11.339844 743.722656 C 10.699219 745.660156 10.128906 747.621094 9.621094 749.597656 C 9.113281 751.574219 8.671875 753.566406 8.300781 755.574219 C 7.929688 757.582031 7.625 759.601562 7.390625 761.628906 C 7.152344 763.65625 6.988281 765.691406 6.890625 767.730469 C 6.792969 769.769531 6.765625 771.8125 6.804688 773.851562 C 6.847656 775.894531 6.957031 777.929688 7.136719 779.964844 C 7.316406 782 7.5625 784.023438 7.878906 786.042969 C 8.195312 788.058594 8.582031 790.0625 9.03125 792.054688 C 9.484375 794.046875 10.003906 796.019531 10.589844 797.972656 C 11.175781 799.929688 11.828125 801.863281 12.546875 803.777344 C 13.265625 805.6875 14.046875 807.574219 14.890625 809.429688 C 15.738281 811.289062 16.644531 813.117188 17.613281 814.914062 C 18.582031 816.710938 19.613281 818.472656 20.699219 820.203125 C 21.789062 821.929688 22.933594 823.617188 24.136719 825.265625 C 25.34375 826.917969 26.601562 828.523438 27.910156 830.085938 C 29.222656 831.652344 30.589844 833.167969 32.003906 834.640625 C 34.03125 836.648438 36.15625 838.550781 38.375 840.347656 C 40.59375 842.144531 42.894531 843.824219 45.28125 845.394531 C 47.664062 846.960938 50.121094 848.410156 52.648438 849.734375 C 55.175781 851.058594 57.765625 852.253906 60.414062 853.324219 C 63.058594 854.390625 65.753906 855.324219 68.492188 856.128906 C 71.230469 856.929688 74.003906 857.59375 76.808594 858.117188 C 79.617188 858.644531 82.441406 859.03125 85.285156 859.277344 C 88.128906 859.523438 90.976562 859.628906 93.832031 859.59375 C 103.730469 859.558594 113.425781 858.128906 122.914062 855.304688 Z M 656.558594 96.960938 C 658.402344 95.007812 660.417969 93.246094 662.597656 91.679688 C 664.78125 90.109375 667.089844 88.761719 669.53125 87.636719 C 671.96875 86.507812 674.492188 85.621094 677.101562 84.980469 C 679.710938 84.335938 682.355469 83.945312 685.039062 83.804688 C 687.257812 83.683594 689.414062 83.980469 691.511719 84.707031 C 693.613281 85.429688 695.496094 86.523438 697.164062 87.992188 L 778.65625 169.480469 C 786.121094 176.945312 783.867188 195.898438 769.6875 210.085938 L 688.0625 291.710938 L 574.933594 178.585938 Z M 79.015625 763.59375 L 112.847656 648.242188 C 113.996094 644.570312 115.570312 641.09375 117.570312 637.8125 C 119.570312 634.527344 121.941406 631.535156 124.679688 628.835938 L 525.066406 228.453125 L 638.191406 341.578125 L 237.800781 741.964844 C 235.101562 744.703125 232.109375 747.074219 228.824219 749.074219 C 225.542969 751.078125 222.066406 752.648438 218.394531 753.796875 L 103.058594 787.632812 C 101.328125 788.359375 99.53125 788.847656 97.667969 789.09375 C 95.804688 789.339844 93.941406 789.339844 92.082031 789.085938 C 90.21875 788.835938 88.421875 788.34375 86.691406 787.613281 C 84.960938 786.878906 83.359375 785.933594 81.878906 784.773438 C 80.71875 783.296875 79.773438 781.691406 79.039062 779.960938 C 78.308594 778.230469 77.816406 776.4375 77.5625 774.574219 C 77.3125 772.710938 77.308594 770.851562 77.554688 768.988281 C 77.800781 767.125 78.285156 765.328125 79.015625 763.59375 Z M 79.015625 763.59375 " fill-opacity="1" fill-rule="nonzero"/></svg>