<svg xmlns="http://www.w3.org/2000/svg" xmlns:xlink="http://www.w3.org/1999/xlink" width="1152" zoomAndPan="magnify" viewBox="0 0 864 863.999991" height="1152" preserveAspectRatio="xMidYMid meet" version="1.0"><defs><clipPath id="7f6052e5c2"><path d="M 86.398438 129 L 778 129 L 778 729 L 86.398438 729 Z M 86.398438 129 " clip-rule="nonzero"/></clipPath><clipPath id="7ec645b862"><path d="M 113.800781 226.167969 C 57.757812 318.5 97.242188 408.367188 146.859375 456.0625 L 426.148438 724.015625 C 432.183594 729.804688 441.722656 729.761719 447.703125 723.917969 L 720.960938 457.058594 C 767.109375 405.75 784.800781 351.324219 774.972656 290.71875 C 761.40625 206.886719 692.320312 141.84375 606.976562 132.554688 C 554.636719 126.921875 504.074219 141.734375 464.613281 174.527344 C 453.992188 183.347656 444.496094 193.210938 436.222656 203.933594 C 426.40625 191.726562 414.894531 180.558594 401.875 170.664062 C 356.496094 136.175781 298.730469 122.484375 243.246094 133.132812 C 190.695312 143.285156 143.523438 177.183594 113.800781 226.167969 Z M 113.800781 226.167969 " clip-rule="nonzero"/></clipPath><clipPath id="baf86019d9"><path d="M 86.402344 129.601562 L 777.898438 129.601562 L 777.898438 729 L 86.402344 729 Z M 86.402344 129.601562 " clip-rule="nonzero"/></clipPath><clipPath id="02f59a239f"><path d="M 113.804688 226.167969 C 57.761719 318.496094 97.242188 408.363281 146.859375 456.058594 L 426.144531 724.007812 C 432.179688 729.796875 441.71875 729.753906 447.703125 723.914062 L 720.957031 457.054688 C 767.105469 405.746094 784.792969 351.320312 774.96875 290.71875 C 761.398438 206.886719 692.316406 141.84375 606.972656 132.554688 C 554.632812 126.921875 504.070312 141.734375 464.609375 174.523438 C 453.988281 183.347656 444.496094 193.210938 436.222656 203.933594 C 426.40625 191.726562 414.894531 180.558594 401.875 170.664062 C 356.496094 136.175781 298.730469 122.484375 243.246094 133.132812 C 190.695312 143.285156 143.523438 177.183594 113.804688 226.167969 Z M 113.804688 226.167969 " clip-rule="nonzero"/></clipPath></defs><g clip-path="url(#7f6052e5c2)"><g clip-path="url(#7ec645b862)"><path fill="#ffffff" d="M 86.398438 129.601562 L 778.613281 129.601562 L 778.613281 734.398438 L 86.398438 734.398438 Z M 86.398438 129.601562 " fill-opacity="1" fill-rule="nonzero"/></g></g><g clip-path="url(#baf86019d9)"><g clip-path="url(#02f59a239f)"><path stroke-linecap="butt" transform="matrix(0.75, 0, 0, 0.75, 86.401677, 129.600013)" fill="none" stroke-linejoin="miter" d="M 36.537349 128.757281 C -38.186614 251.861454 14.454014 371.684377 80.610268 435.27813 L 452.990495 792.543773 C 461.037371 800.262524 473.756121 800.205232 481.735288 792.418773 L 846.073849 436.606255 C 907.605102 368.194793 931.188437 295.627081 918.089478 214.824993 C 899.995727 103.048946 807.886347 16.324983 694.094674 3.939566 C 624.308212 -3.570851 556.891542 16.17915 504.276956 59.897902 C 490.115497 71.663528 477.459246 84.81457 466.427996 99.111446 C 453.339453 82.835403 437.990494 67.944777 420.631118 54.752068 C 360.125907 8.767691 283.10507 -9.487518 209.125899 4.710399 C 139.058187 18.246858 76.162351 63.444777 36.537349 128.757281 Z M 36.537349 128.757281 " stroke="#000000" stroke-width="94" stroke-opacity="1" stroke-miterlimit="4"/></g></g></svg>