<svg xmlns="http://www.w3.org/2000/svg" xmlns:xlink="http://www.w3.org/1999/xlink" width="1152" zoomAndPan="magnify" viewBox="0 0 864 863.999991" height="1152" preserveAspectRatio="xMidYMid meet" version="1.0"><defs><clipPath id="5d7f6f2265"><path d="M 86.398438 117.9375 L 777.898438 117.9375 L 777.898438 244 L 86.398438 244 Z M 86.398438 117.9375 " clip-rule="nonzero"/></clipPath><clipPath id="b58e2068af"><path d="M 86.398438 369 L 777.898438 369 L 777.898438 495 L 86.398438 495 Z M 86.398438 369 " clip-rule="nonzero"/></clipPath><clipPath id="baca19c473"><path d="M 86.398438 620 L 777.898438 620 L 777.898438 746.4375 L 86.398438 746.4375 Z M 86.398438 620 " clip-rule="nonzero"/></clipPath></defs><g clip-path="url(#5d7f6f2265)"><path fill="#003366" d="M 149.339844 243.5625 L 714.652344 243.5625 C 716.710938 243.5625 718.761719 243.460938 720.8125 243.257812 C 722.859375 243.058594 724.890625 242.753906 726.90625 242.355469 C 728.925781 241.953125 730.917969 241.453125 732.886719 240.855469 C 734.855469 240.257812 736.789062 239.566406 738.691406 238.78125 C 740.589844 237.992188 742.449219 237.113281 744.261719 236.144531 C 746.078125 235.175781 747.839844 234.117188 749.550781 232.976562 C 751.261719 231.832031 752.910156 230.609375 754.5 229.304688 C 756.09375 228 757.613281 226.617188 759.070312 225.164062 C 760.523438 223.710938 761.902344 222.1875 763.207031 220.597656 C 764.511719 219.007812 765.738281 217.355469 766.878906 215.644531 C 768.023438 213.933594 769.078125 212.171875 770.050781 210.359375 C 771.019531 208.542969 771.898438 206.6875 772.683594 204.785156 C 773.472656 202.886719 774.164062 200.949219 774.761719 198.980469 C 775.359375 197.011719 775.859375 195.019531 776.257812 193.003906 C 776.660156 190.984375 776.960938 188.953125 777.164062 186.90625 C 777.367188 184.859375 777.464844 182.804688 777.464844 180.75 C 777.464844 178.691406 777.367188 176.640625 777.164062 174.59375 C 776.960938 172.542969 776.660156 170.511719 776.257812 168.496094 C 775.859375 166.476562 775.359375 164.484375 774.761719 162.515625 C 774.164062 160.546875 773.472656 158.613281 772.683594 156.710938 C 771.898438 154.8125 771.019531 152.953125 770.050781 151.140625 C 769.078125 149.324219 768.023438 147.5625 766.878906 145.851562 C 765.738281 144.140625 764.511719 142.492188 763.207031 140.902344 C 761.902344 139.308594 760.523438 137.789062 759.070312 136.332031 C 757.613281 134.878906 756.09375 133.5 754.5 132.195312 C 752.910156 130.890625 751.261719 129.664062 749.550781 128.523438 C 747.839844 127.378906 746.078125 126.324219 744.261719 125.351562 C 742.449219 124.382812 740.589844 123.503906 738.691406 122.71875 C 736.789062 121.929688 734.855469 121.238281 732.886719 120.640625 C 730.917969 120.042969 728.925781 119.542969 726.90625 119.144531 C 724.890625 118.742188 722.859375 118.441406 720.8125 118.238281 C 718.761719 118.035156 716.710938 117.9375 714.652344 117.9375 L 149.339844 117.9375 C 147.285156 117.9375 145.230469 118.035156 143.183594 118.238281 C 141.136719 118.441406 139.105469 118.742188 137.085938 119.144531 C 135.070312 119.542969 133.078125 120.042969 131.109375 120.640625 C 129.140625 121.238281 127.203125 121.929688 125.304688 122.71875 C 123.402344 123.503906 121.546875 124.382812 119.730469 125.351562 C 117.917969 126.324219 116.15625 127.378906 114.445312 128.523438 C 112.734375 129.664062 111.082031 130.890625 109.492188 132.195312 C 107.902344 133.5 106.382812 134.878906 104.925781 136.332031 C 103.472656 137.789062 102.089844 139.308594 100.785156 140.902344 C 99.480469 142.492188 98.257812 144.140625 97.113281 145.851562 C 95.972656 147.5625 94.914062 149.324219 93.945312 151.140625 C 92.976562 152.953125 92.097656 154.8125 91.308594 156.710938 C 90.523438 158.613281 89.832031 160.546875 89.234375 162.515625 C 88.636719 164.484375 88.136719 166.476562 87.734375 168.496094 C 87.335938 170.511719 87.03125 172.542969 86.832031 174.59375 C 86.628906 176.640625 86.527344 178.691406 86.527344 180.75 C 86.527344 182.804688 86.628906 184.859375 86.832031 186.90625 C 87.03125 188.953125 87.335938 190.984375 87.734375 193.003906 C 88.136719 195.019531 88.636719 197.011719 89.234375 198.980469 C 89.832031 200.949219 90.523438 202.886719 91.308594 204.785156 C 92.097656 206.6875 92.976562 208.542969 93.945312 210.359375 C 94.914062 212.171875 95.972656 213.933594 97.113281 215.644531 C 98.257812 217.355469 99.480469 219.007812 100.785156 220.597656 C 102.089844 222.1875 103.472656 223.710938 104.925781 225.164062 C 106.382812 226.617188 107.902344 228 109.492188 229.304688 C 111.082031 230.609375 112.734375 231.832031 114.445312 232.976562 C 116.15625 234.117188 117.917969 235.175781 119.730469 236.144531 C 121.546875 237.113281 123.402344 237.992188 125.304688 238.78125 C 127.203125 239.566406 129.140625 240.257812 131.109375 240.855469 C 133.078125 241.453125 135.070312 241.953125 137.085938 242.355469 C 139.105469 242.753906 141.136719 243.058594 143.183594 243.257812 C 145.230469 243.460938 147.285156 243.5625 149.339844 243.5625 Z M 149.339844 243.5625 " fill-opacity="1" fill-rule="nonzero"/></g><g clip-path="url(#b58e2068af)"><path fill="#003366" d="M 714.652344 369.1875 L 149.339844 369.1875 C 147.285156 369.1875 145.230469 369.285156 143.183594 369.488281 C 141.136719 369.691406 139.105469 369.992188 137.085938 370.394531 C 135.070312 370.792969 133.078125 371.292969 131.109375 371.890625 C 129.140625 372.488281 127.203125 373.179688 125.304688 373.96875 C 123.402344 374.753906 121.546875 375.632812 119.730469 376.601562 C 117.917969 377.574219 116.15625 378.628906 114.445312 379.773438 C 112.734375 380.914062 111.082031 382.140625 109.492188 383.445312 C 107.902344 384.75 106.382812 386.128906 104.925781 387.582031 C 103.472656 389.039062 102.089844 390.558594 100.785156 392.152344 C 99.480469 393.742188 98.257812 395.390625 97.113281 397.101562 C 95.972656 398.8125 94.914062 400.574219 93.945312 402.390625 C 92.976562 404.203125 92.097656 406.0625 91.308594 407.960938 C 90.523438 409.863281 89.832031 411.796875 89.234375 413.765625 C 88.636719 415.734375 88.136719 417.726562 87.734375 419.746094 C 87.335938 421.761719 87.03125 423.792969 86.832031 425.84375 C 86.628906 427.890625 86.527344 429.941406 86.527344 432 C 86.527344 434.054688 86.628906 436.109375 86.832031 438.15625 C 87.03125 440.203125 87.335938 442.234375 87.734375 444.253906 C 88.136719 446.269531 88.636719 448.261719 89.234375 450.230469 C 89.832031 452.199219 90.523438 454.136719 91.308594 456.035156 C 92.097656 457.9375 92.976562 459.792969 93.945312 461.609375 C 94.914062 463.421875 95.972656 465.183594 97.113281 466.894531 C 98.257812 468.605469 99.480469 470.257812 100.785156 471.847656 C 102.089844 473.4375 103.472656 474.957031 104.925781 476.414062 C 106.382812 477.867188 107.902344 479.25 109.492188 480.554688 C 111.082031 481.859375 112.734375 483.082031 114.445312 484.226562 C 116.15625 485.367188 117.917969 486.425781 119.730469 487.394531 C 121.546875 488.363281 123.402344 489.242188 125.304688 490.03125 C 127.203125 490.816406 129.140625 491.507812 131.109375 492.105469 C 133.078125 492.703125 135.070312 493.203125 137.085938 493.605469 C 139.105469 494.003906 141.136719 494.308594 143.183594 494.507812 C 145.230469 494.710938 147.285156 494.8125 149.339844 494.8125 L 714.652344 494.8125 C 716.710938 494.8125 718.761719 494.710938 720.8125 494.507812 C 722.859375 494.308594 724.890625 494.003906 726.90625 493.605469 C 728.925781 493.203125 730.917969 492.703125 732.886719 492.105469 C 734.855469 491.507812 736.789062 490.816406 738.691406 490.03125 C 740.589844 489.242188 742.449219 488.363281 744.261719 487.394531 C 746.078125 486.425781 747.839844 485.367188 749.550781 484.226562 C 751.261719 483.082031 752.910156 481.859375 754.5 480.554688 C 756.09375 479.25 757.613281 477.867188 759.070312 476.414062 C 760.523438 474.957031 761.902344 473.4375 763.207031 471.847656 C 764.511719 470.257812 765.738281 468.605469 766.878906 466.894531 C 768.023438 465.183594 769.078125 463.421875 770.050781 461.609375 C 771.019531 459.792969 771.898438 457.9375 772.683594 456.035156 C 773.472656 454.136719 774.164062 452.199219 774.761719 450.230469 C 775.359375 448.261719 775.859375 446.269531 776.257812 444.253906 C 776.660156 442.234375 776.960938 440.203125 777.164062 438.15625 C 777.367188 436.109375 777.464844 434.054688 777.464844 432 C 777.464844 429.941406 777.367188 427.890625 777.164062 425.84375 C 776.960938 423.792969 776.660156 421.761719 776.257812 419.746094 C 775.859375 417.726562 775.359375 415.734375 774.761719 413.765625 C 774.164062 411.796875 773.472656 409.863281 772.683594 407.960938 C 771.898438 406.0625 771.019531 404.203125 770.050781 402.390625 C 769.078125 400.574219 768.023438 398.8125 766.878906 397.101562 C 765.738281 395.390625 764.511719 393.742188 763.207031 392.152344 C 761.902344 390.558594 760.523438 389.039062 759.070312 387.582031 C 757.613281 386.128906 756.09375 384.75 754.5 383.445312 C 752.910156 382.140625 751.261719 380.914062 749.550781 379.773438 C 747.839844 378.628906 746.078125 377.574219 744.261719 376.601562 C 742.449219 375.632812 740.589844 374.753906 738.691406 373.96875 C 736.789062 373.179688 734.855469 372.488281 732.886719 371.890625 C 730.917969 371.292969 728.925781 370.792969 726.90625 370.394531 C 724.890625 369.992188 722.859375 369.691406 720.8125 369.488281 C 718.761719 369.285156 716.710938 369.1875 714.652344 369.1875 Z M 714.652344 369.1875 " fill-opacity="1" fill-rule="nonzero"/></g><g clip-path="url(#baca19c473)"><path fill="#003366" d="M 714.652344 620.4375 L 149.339844 620.4375 C 147.285156 620.4375 145.230469 620.535156 143.183594 620.738281 C 141.136719 620.941406 139.105469 621.242188 137.085938 621.644531 C 135.070312 622.042969 133.078125 622.542969 131.109375 623.140625 C 129.140625 623.738281 127.203125 624.429688 125.304688 625.21875 C 123.402344 626.003906 121.546875 626.882812 119.730469 627.851562 C 117.917969 628.824219 116.15625 629.878906 114.445312 631.023438 C 112.734375 632.164062 111.082031 633.390625 109.492188 634.695312 C 107.902344 636 106.382812 637.378906 104.925781 638.832031 C 103.472656 640.289062 102.089844 641.808594 100.785156 643.402344 C 99.480469 644.992188 98.257812 646.640625 97.113281 648.351562 C 95.972656 650.0625 94.914062 651.824219 93.945312 653.640625 C 92.976562 655.453125 92.097656 657.3125 91.308594 659.210938 C 90.523438 661.113281 89.832031 663.046875 89.234375 665.015625 C 88.636719 666.984375 88.136719 668.976562 87.734375 670.996094 C 87.335938 673.011719 87.03125 675.042969 86.832031 677.09375 C 86.628906 679.140625 86.527344 681.191406 86.527344 683.25 C 86.527344 685.304688 86.628906 687.359375 86.832031 689.40625 C 87.03125 691.453125 87.335938 693.484375 87.734375 695.503906 C 88.136719 697.519531 88.636719 699.511719 89.234375 701.480469 C 89.832031 703.449219 90.523438 705.386719 91.308594 707.285156 C 92.097656 709.1875 92.976562 711.042969 93.945312 712.859375 C 94.914062 714.671875 95.972656 716.433594 97.113281 718.144531 C 98.257812 719.855469 99.480469 721.507812 100.785156 723.097656 C 102.089844 724.6875 103.472656 726.207031 104.925781 727.664062 C 106.382812 729.117188 107.902344 730.496094 109.492188 731.804688 C 111.082031 733.109375 112.734375 734.332031 114.445312 735.476562 C 116.15625 736.617188 117.917969 737.675781 119.730469 738.644531 C 121.546875 739.613281 123.402344 740.492188 125.304688 741.28125 C 127.203125 742.066406 129.140625 742.757812 131.109375 743.355469 C 133.078125 743.953125 135.070312 744.453125 137.085938 744.855469 C 139.105469 745.253906 141.136719 745.558594 143.183594 745.757812 C 145.230469 745.960938 147.285156 746.0625 149.339844 746.0625 L 714.652344 746.0625 C 716.710938 746.0625 718.761719 745.960938 720.8125 745.757812 C 722.859375 745.558594 724.890625 745.253906 726.90625 744.855469 C 728.925781 744.453125 730.917969 743.953125 732.886719 743.355469 C 734.855469 742.757812 736.789062 742.066406 738.691406 741.28125 C 740.589844 740.492188 742.449219 739.613281 744.261719 738.644531 C 746.078125 737.675781 747.839844 736.617188 749.550781 735.476562 C 751.261719 734.332031 752.910156 733.109375 754.5 731.804688 C 756.09375 730.496094 757.613281 729.117188 759.070312 727.664062 C 760.523438 726.207031 761.902344 724.6875 763.207031 723.097656 C 764.511719 721.507812 765.738281 719.855469 766.878906 718.144531 C 768.023438 716.433594 769.078125 714.671875 770.050781 712.859375 C 771.019531 711.042969 771.898438 709.1875 772.683594 707.285156 C 773.472656 705.386719 774.164062 703.449219 774.761719 701.480469 C 775.359375 699.511719 775.859375 697.519531 776.257812 695.503906 C 776.660156 693.484375 776.960938 691.453125 777.164062 689.40625 C 777.367188 687.359375 777.464844 685.304688 777.464844 683.25 C 777.464844 681.191406 777.367188 679.140625 777.164062 677.09375 C 776.960938 675.042969 776.660156 673.011719 776.257812 670.996094 C 775.859375 668.976562 775.359375 666.984375 774.761719 665.015625 C 774.164062 663.046875 773.472656 661.113281 772.683594 659.210938 C 771.898438 657.3125 771.019531 655.453125 770.050781 653.640625 C 769.078125 651.824219 768.023438 650.0625 766.878906 648.351562 C 765.738281 646.640625 764.511719 644.992188 763.207031 643.402344 C 761.902344 641.808594 760.523438 640.289062 759.070312 638.832031 C 757.613281 637.378906 756.09375 636 754.5 634.695312 C 752.910156 633.390625 751.261719 632.164062 749.550781 631.023438 C 747.839844 629.878906 746.078125 628.824219 744.261719 627.851562 C 742.449219 626.882812 740.589844 626.003906 738.691406 625.21875 C 736.789062 624.429688 734.855469 623.738281 732.886719 623.140625 C 730.917969 622.542969 728.925781 622.042969 726.90625 621.644531 C 724.890625 621.242188 722.859375 620.941406 720.8125 620.738281 C 718.761719 620.535156 716.710938 620.4375 714.652344 620.4375 Z M 714.652344 620.4375 " fill-opacity="1" fill-rule="nonzero"/></g></svg>