<svg xmlns="http://www.w3.org/2000/svg" xmlns:xlink="http://www.w3.org/1999/xlink" width="1350" zoomAndPan="magnify" viewBox="0 0 1012.5 1012.499969" height="1350" preserveAspectRatio="xMidYMid meet" version="1.2"><defs><clipPath id="ad4ee4311f"><path d="M 3.375 514 L 692 514 L 692 883 L 3.375 883 Z M 3.375 514 "/></clipPath><clipPath id="4baa61d748"><path d="M 558 559 L 1012 559 L 1012 1012 L 558 1012 Z M 558 559 "/></clipPath></defs><g id="e9cc9d0583"><path style=" stroke:none;fill-rule:evenodd;fill:#f1eee4;fill-opacity:1;" d="M 396.070312 26.167969 C 327.089844 26.167969 254.160156 52.09375 240.65625 84.582031 C 239.90625 86.367188 238.683594 87.925781 237.148438 89.097656 C 222.734375 100.03125 213.902344 117.066406 211.609375 138.316406 C 208.085938 170.941406 220.4375 208.742188 245.835938 244.507812 C 256.292969 194.023438 258.355469 156.886719 251.980469 133.9375 C 250.703125 129.285156 252.578125 124.355469 256.636719 121.742188 C 260.671875 119.128906 265.945312 119.449219 269.632812 122.542969 C 325.207031 168.945312 372.179688 190.242188 415.53125 188.292969 C 403.566406 174.46875 392.398438 156.886719 382.199219 135.773438 C 380.277344 131.761719 380.9375 126.945312 383.941406 123.621094 C 386.925781 120.320312 391.621094 119.128906 395.816406 120.617188 C 402.445312 123.003906 408.722656 125.203125 414.660156 127.3125 C 463.105469 144.414062 489.789062 153.859375 503.796875 173.621094 C 513.265625 187.011719 515.832031 203.105469 513.996094 227.472656 C 531.882812 196.960938 540.175781 165.804688 537.199219 138.316406 C 534.910156 117.0625 526.078125 100.03125 511.660156 89.097656 C 509.410156 87.398438 507.898438 84.855469 507.464844 82.058594 C 501.207031 42.648438 453.519531 31.1875 425.640625 27.863281 C 415.992188 26.714844 406.0625 26.167969 396.070312 26.167969 Z M 497.285156 280.636719 C 495.726562 280.636719 494.144531 280.316406 492.652344 279.628906 C 488.160156 277.542969 485.613281 272.730469 486.441406 267.84375 C 493.777344 223.554688 495.566406 200.078125 485.820312 186.34375 C 476.492188 173.164062 454.550781 164.796875 415.507812 150.949219 C 425.183594 166.5625 435.429688 178.847656 446.160156 187.675781 C 449.394531 190.355469 450.835938 194.644531 449.875 198.726562 C 448.910156 202.804688 445.703125 205.992188 441.597656 206.910156 C 391.050781 218.347656 338.386719 202.371094 277.40625 156.75 C 278.738281 185.613281 273.691406 223.738281 262.230469 272.179688 C 261.269531 276.214844 258.148438 279.378906 254.113281 280.339844 C 250.082031 281.304688 245.835938 279.949219 243.15625 276.789062 C 204.4375 231.441406 184.96875 180.109375 189.714844 135.957031 C 192.515625 110.003906 203.792969 87.90625 221.558594 73.367188 C 245.449219 24.171875 350.953125 -3.203125 428.234375 6.015625 C 484.882812 12.753906 520.230469 36.941406 528.371094 74.308594 C 545.5 88.84375 556.339844 110.554688 559.089844 135.957031 C 563.863281 180.109375 544.371094 231.441406 505.652344 276.789062 C 503.519531 279.308594 500.425781 280.636719 497.285156 280.636719 Z M 497.285156 280.636719 "/><path style=" stroke:none;fill-rule:evenodd;fill:#f1eee4;fill-opacity:1;" d="M 374.910156 452.855469 C 305.972656 452.855469 247.417969 405.144531 224.355469 330.683594 C 183.070312 313.101562 168.535156 276.257812 176.074219 249.320312 C 182.335938 227.015625 202.417969 215.1875 226.054688 219.863281 C 232.019531 221.03125 235.910156 226.832031 234.71875 232.792969 C 233.550781 238.753906 227.75 242.628906 221.789062 241.457031 C 209.363281 238.980469 200.421875 244.027344 197.257812 255.257812 C 192.078125 273.804688 204.273438 300.03125 237.171875 312.09375 C 240.476562 313.308594 243.019531 316.035156 243.980469 319.429688 C 263.128906 387.171875 314.5 430.847656 374.929688 430.847656 C 375.089844 430.847656 375.273438 430.847656 375.433594 430.847656 C 435.59375 430.59375 486.371094 386.898438 504.804688 319.519531 C 505.746094 316.082031 508.289062 313.308594 511.636719 312.09375 C 546.804688 299.207031 556.109375 270.804688 551.480469 254.753906 C 548.296875 243.683594 539.445312 238.824219 527.179688 241.414062 C 521.246094 242.695312 515.394531 238.890625 514.109375 232.953125 C 512.851562 226.992188 516.65625 221.148438 522.59375 219.886719 C 546.140625 214.886719 566.242188 226.464844 572.640625 248.65625 C 580.460938 275.824219 566.0625 312.941406 524.519531 330.660156 C 502.171875 404.800781 444.210938 452.578125 375.527344 452.855469 C 375.324219 452.855469 375.113281 452.855469 374.910156 452.855469 Z M 374.910156 452.855469 "/><g clip-rule="nonzero" clip-path="url(#ad4ee4311f)"><path style=" stroke:none;fill-rule:evenodd;fill:#f1eee4;fill-opacity:1;" d="M 680.257812 608.015625 C 677.851562 608.015625 675.417969 607.234375 673.402344 605.605469 C 643.988281 582.175781 606.046875 564.386719 569.34375 547.191406 C 561.230469 543.386719 553.203125 539.628906 545.40625 535.890625 C 539.953125 533.230469 537.636719 526.652344 540.296875 521.195312 C 542.933594 515.714844 549.511719 513.425781 554.96875 516.058594 C 562.695312 519.773438 570.625 523.488281 578.695312 527.269531 C 616.527344 545.015625 655.679688 563.355469 687.109375 588.390625 C 691.855469 592.195312 692.636719 599.121094 688.851562 603.863281 C 686.675781 606.59375 683.488281 608.015625 680.257812 608.015625 Z M 587.066406 882.796875 L 41.851562 882.796875 C 24.269531 882.796875 3.335938 874.386719 3.335938 834.265625 L 3.335938 699.53125 C 3.335938 605.628906 92.148438 563.996094 170.53125 527.292969 C 178.582031 523.511719 186.535156 519.773438 194.257812 516.058594 C 199.742188 513.425781 206.316406 515.714844 208.953125 521.195312 C 211.59375 526.652344 209.296875 533.230469 203.820312 535.890625 C 196.027344 539.648438 188 543.410156 179.863281 547.214844 C 103.890625 582.796875 25.34375 619.613281 25.34375 699.53125 L 25.347656 834.265625 C 25.347656 858.75 33.484375 860.789062 41.851562 860.789062 L 587.066406 860.789062 C 593.140625 860.789062 598.066406 865.71875 598.066406 871.792969 C 598.070312 877.871094 593.140625 882.796875 587.066406 882.796875 Z M 587.066406 882.796875 "/></g><path style=" stroke:none;fill-rule:evenodd;fill:#f1eee4;fill-opacity:1;" d="M 275.667969 486.417969 L 216.722656 507.578125 C 212.78125 509 210.1875 511.792969 209.089844 515.851562 C 207.964844 519.910156 208.769531 523.625 211.472656 526.855469 L 258.242188 583.253906 C 260.539062 586.027344 261.335938 589.765625 260.351562 593.226562 C 259.386719 596.710938 256.773438 599.484375 253.378906 600.675781 L 209.15625 616.015625 C 205.421875 617.320312 202.96875 619.773438 201.636719 623.535156 C 200.332031 627.269531 200.742188 630.734375 202.875 634.078125 L 322.683594 822.984375 Z M 340.613281 882.796875 C 336.921875 882.796875 333.367188 880.941406 331.304688 877.6875 L 184.285156 645.863281 C 178.578125 636.855469 177.359375 626.355469 180.867188 616.265625 C 184.375 606.203125 191.871094 598.730469 201.957031 595.222656 L 231.167969 585.089844 L 194.535156 540.910156 C 187.199219 532.085938 184.832031 521.101562 187.859375 510.054688 C 190.886719 498.980469 198.496094 490.75 209.292969 486.875 L 280.984375 461.105469 C 284.101562 460.007812 287.5625 460.351562 290.382812 462.046875 C 293.226562 463.765625 295.152344 466.679688 295.609375 469.957031 L 351.503906 870.28125 C 352.214844 875.414062 349.253906 880.34375 344.394531 882.132812 C 343.15625 882.59375 341.871094 882.796875 340.613281 882.796875 Z M 340.613281 882.796875 "/><path style=" stroke:none;fill-rule:evenodd;fill:#f1eee4;fill-opacity:1;" d="M 473.144531 486.417969 L 426.128906 822.984375 L 545.957031 634.078125 C 548.070312 630.734375 548.476562 627.269531 547.167969 623.535156 C 545.863281 619.773438 543.386719 617.320312 539.652344 616.015625 L 495.453125 600.675781 C 492.039062 599.484375 489.421875 596.710938 488.457031 593.226562 C 487.472656 589.765625 488.273438 586.027344 490.589844 583.253906 L 537.359375 526.855469 C 540.042969 523.625 540.84375 519.910156 539.71875 515.851562 C 538.625 511.792969 536.050781 509 532.085938 507.578125 Z M 408.199219 882.796875 C 406.9375 882.796875 405.652344 882.59375 404.414062 882.132812 C 399.558594 880.34375 396.59375 875.414062 397.304688 870.28125 L 453.222656 469.957031 C 453.683594 466.679688 455.582031 463.765625 458.425781 462.046875 C 461.269531 460.351562 464.707031 460.007812 467.824219 461.105469 L 539.515625 486.875 C 550.3125 490.75 557.921875 498.980469 560.949219 510.054688 C 563.976562 521.101562 561.613281 532.085938 554.277344 540.910156 L 517.644531 585.089844 L 546.875 595.222656 C 556.941406 598.730469 564.433594 606.203125 567.941406 616.265625 C 571.449219 626.355469 570.257812 636.855469 564.523438 645.863281 L 417.507812 877.6875 C 415.445312 880.941406 411.886719 882.796875 408.199219 882.796875 Z M 408.199219 882.796875 "/><path style=" stroke:none;fill-rule:evenodd;fill:#f1eee4;fill-opacity:1;" d="M 374.265625 577.363281 C 341.394531 577.363281 309.800781 563.789062 285.269531 539.167969 C 280.984375 534.859375 281.003906 527.890625 285.316406 523.601562 C 289.625 519.316406 296.597656 519.335938 300.882812 523.648438 C 321.242188 544.097656 347.304688 555.355469 374.265625 555.355469 C 401.34375 555.355469 427.5 544.027344 447.96875 523.488281 C 452.257812 519.179688 459.226562 519.15625 463.539062 523.441406 C 467.828125 527.730469 467.847656 534.699219 463.5625 539.007812 C 438.941406 563.742188 407.234375 577.363281 374.265625 577.363281 Z M 374.265625 577.363281 "/><path style=" stroke:none;fill-rule:evenodd;fill:#f1eee4;fill-opacity:1;" d="M 284.699219 482.472656 C 278.621094 482.472656 273.691406 477.546875 273.691406 471.46875 L 273.695312 407.324219 C 273.695312 401.226562 278.621094 396.320312 284.695312 396.320312 C 290.777344 396.320312 295.699219 401.226562 295.699219 407.324219 L 295.703125 471.46875 C 295.703125 477.546875 290.773438 482.472656 284.699219 482.472656 Z M 284.699219 482.472656 "/><path style=" stroke:none;fill-rule:evenodd;fill:#f1eee4;fill-opacity:1;" d="M 464.113281 482.472656 C 458.035156 482.472656 453.105469 477.546875 453.105469 471.46875 L 453.109375 407.988281 C 453.109375 401.890625 458.035156 396.984375 464.109375 396.984375 C 470.1875 396.984375 475.117188 401.890625 475.117188 407.988281 L 475.117188 471.46875 C 475.117188 477.546875 470.1875 482.472656 464.113281 482.472656 Z M 464.113281 482.472656 "/><path style=" stroke:none;fill-rule:evenodd;fill:#f1eee4;fill-opacity:1;" d="M 193.503906 810.816406 L 166.886719 810.816406 C 160.808594 810.816406 155.878906 805.886719 155.878906 799.8125 C 155.882812 793.734375 160.808594 788.808594 166.882812 788.808594 L 182.5 788.808594 L 182.5 746.003906 C 182.5 729.0625 168.71875 715.308594 151.796875 715.308594 L 130.523438 715.308594 C 113.605469 715.308594 99.824219 729.0625 99.824219 746.003906 L 99.828125 788.808594 L 115.441406 788.808594 C 121.515625 788.808594 126.441406 793.734375 126.441406 799.8125 C 126.445312 805.886719 121.511719 810.816406 115.4375 810.816406 L 88.824219 810.816406 C 82.75 810.816406 77.816406 805.886719 77.816406 799.8125 L 77.816406 746.003906 C 77.816406 716.9375 101.453125 693.300781 130.523438 693.300781 L 151.796875 693.300781 C 180.847656 693.300781 204.503906 716.9375 204.503906 746.003906 L 204.503906 799.8125 C 204.503906 805.886719 199.574219 810.816406 193.503906 810.816406 Z M 193.503906 810.816406 "/><path style=" stroke:none;fill-rule:evenodd;fill:#f1eee4;fill-opacity:1;" d="M 141.160156 715.300781 C 135.085938 715.300781 130.15625 710.375 130.15625 704.296875 L 130.160156 553.472656 C 130.160156 547.394531 135.085938 542.46875 141.160156 542.46875 C 147.238281 542.464844 152.164062 547.394531 152.164062 553.472656 L 152.167969 704.296875 C 152.167969 710.375 147.234375 715.300781 141.160156 715.300781 Z M 141.160156 715.300781 "/><g clip-rule="nonzero" clip-path="url(#4baa61d748)"><path style=" stroke:none;fill-rule:evenodd;fill:#f1eee4;fill-opacity:1;" d="M 784.75 581.03125 C 671.933594 581.03125 580.164062 672.800781 580.164062 785.617188 C 580.164062 898.433594 671.933594 990.226562 784.75 990.226562 C 897.566406 990.226562 989.359375 898.433594 989.359375 785.617188 C 989.363281 672.800781 897.566406 581.03125 784.75 581.03125 Z M 784.75 1012.234375 C 659.808594 1012.234375 558.152344 910.582031 558.152344 785.617188 C 558.15625 660.671875 659.804688 559.023438 784.75 559.023438 C 909.71875 559.023438 1011.367188 660.671875 1011.367188 785.617188 C 1011.367188 910.582031 909.714844 1012.234375 784.75 1012.234375 Z M 784.75 1012.234375 "/></g><path style=" stroke:none;fill-rule:evenodd;fill:#f1eee4;fill-opacity:1;" d="M 820.375 845.523438 L 749.121094 845.523438 C 722.78125 845.523438 701.34375 824.089844 701.34375 797.75 L 701.34375 752.148438 C 701.34375 729.703125 683.070312 711.457031 660.628906 711.457031 C 654.554688 711.457031 649.625 706.527344 649.625 700.453125 C 649.628906 694.355469 654.550781 689.449219 660.628906 689.449219 C 695.226562 689.449219 723.351562 717.578125 723.351562 752.148438 L 723.355469 797.75 C 723.355469 811.960938 734.90625 823.515625 749.121094 823.515625 L 820.375 823.515625 C 834.585938 823.515625 846.140625 811.960938 846.140625 797.75 L 846.140625 752.148438 C 846.140625 717.578125 874.292969 689.449219 908.863281 689.449219 C 914.941406 689.449219 919.871094 694.355469 919.871094 700.453125 C 919.875 706.527344 914.941406 711.457031 908.863281 711.457031 C 886.421875 711.457031 868.148438 729.703125 868.148438 752.148438 L 868.152344 797.75 C 868.152344 824.089844 846.714844 845.523438 820.375 845.523438 Z M 820.375 845.523438 "/><path style=" stroke:none;fill-rule:evenodd;fill:#f1eee4;fill-opacity:1;" d="M 784.75 938.371094 C 778.675781 938.371094 773.746094 933.464844 773.746094 927.367188 L 773.75 700.449219 C 773.75 694.351562 778.675781 689.445312 784.75 689.445312 C 790.828125 689.445312 795.753906 694.351562 795.753906 700.449219 L 795.757812 927.367188 C 795.757812 933.464844 790.824219 938.371094 784.75 938.371094 Z M 784.75 938.371094 "/><path style=" stroke:none;fill-rule:evenodd;fill:#f1eee4;fill-opacity:1;" d="M 825.058594 938.371094 L 744.46875 938.371094 C 738.398438 938.371094 733.464844 933.441406 733.464844 927.367188 C 733.46875 921.292969 738.394531 916.363281 744.46875 916.363281 L 825.058594 916.363281 C 831.128906 916.363281 836.054688 921.292969 836.054688 927.367188 C 836.058594 933.441406 831.128906 938.371094 825.058594 938.371094 Z M 825.058594 938.371094 "/></g></svg>