<svg xmlns="http://www.w3.org/2000/svg" xmlns:xlink="http://www.w3.org/1999/xlink" width="1152" zoomAndPan="magnify" viewBox="0 0 864 863.999991" height="1152" preserveAspectRatio="xMidYMid meet" version="1.0"><defs><clipPath id="20e587243a"><path d="M 162 86.398438 L 702 86.398438 L 702 777 L 162 777 Z M 162 86.398438 " clip-rule="nonzero"/></clipPath></defs><g clip-path="url(#20e587243a)"><path fill="#000000" d="M 687 776.699219 C 683.1875 776.699219 679.4375 775.246094 676.582031 772.492188 L 432 536.4375 L 187.417969 772.492188 C 183.085938 776.675781 176.675781 777.855469 171.136719 775.503906 C 165.597656 773.152344 162 767.714844 162 761.691406 L 162 101.40625 C 162 93.117188 168.71875 86.398438 177 86.398438 L 687 86.398438 C 695.28125 86.398438 702 93.117188 702 101.40625 L 702 761.691406 C 702 767.714844 698.402344 773.152344 692.863281 775.503906 C 690.96875 776.308594 688.976562 776.699219 687 776.699219 Z M 432 500.578125 C 435.753906 500.578125 439.507812 501.984375 442.414062 504.785156 L 672 726.363281 L 672 116.414062 L 192 116.414062 L 192 726.363281 L 421.585938 504.785156 C 424.492188 501.984375 428.246094 500.578125 432 500.578125 Z M 432 500.578125 " fill-opacity="1" fill-rule="nonzero"/></g></svg>